<?xml version="1.0" encoding="UTF-8"?>
<svg id="Layer_2" data-name="Layer 2" xmlns="http://www.w3.org/2000/svg" xmlns:xlink="http://www.w3.org/1999/xlink" viewBox="0 0 314.24 1333.88">
  <defs>
    <style>
      .cls-1 {
        fill: url(#linear-gradient);
      }

      .cls-2 {
        fill: #fff;
      }

      .cls-3 {
        fill: url(#linear-gradient-3);
      }

      .cls-4 {
        fill: url(#linear-gradient-4);
      }

      .cls-5 {
        fill: url(#linear-gradient-2);
      }

      .cls-6 {
        fill: url(#linear-gradient-6);
      }

      .cls-7 {
        fill: url(#linear-gradient-7);
      }

      .cls-8 {
        fill: url(#linear-gradient-5);
      }
    </style>
    <linearGradient id="linear-gradient" x1="273.92" y1="88.43" x2="273.92" y2="1243.16" gradientUnits="userSpaceOnUse">
      <stop offset=".07" stop-color="#001ce9"/>
      <stop offset=".29" stop-color="#355cf4"/>
      <stop offset=".47" stop-color="#5b8bfb"/>
      <stop offset=".55" stop-color="#6a9dff"/>
      <stop offset=".96" stop-color="#fff"/>
    </linearGradient>
    <linearGradient id="linear-gradient-2" x1="239.18" y1="1243.16" x2="306.77" y2="1243.16" xlink:href="#linear-gradient"/>
    <linearGradient id="linear-gradient-3" x1="239.18" y1="650.76" x2="306.77" y2="650.76" xlink:href="#linear-gradient"/>
    <linearGradient id="linear-gradient-4" x1="0" y1="1242.24" x2="183.29" y2="1242.24" xlink:href="#linear-gradient"/>
    <linearGradient id="linear-gradient-5" x1="0" y1="652.8" x2="183.29" y2="652.8" xlink:href="#linear-gradient"/>
    <linearGradient id="linear-gradient-6" x1="0" y1="91.64" x2="183.29" y2="91.64" xlink:href="#linear-gradient"/>
    <linearGradient id="linear-gradient-7" x1="249.08" y1="64.53" x2="296.87" y2="112.33" xlink:href="#linear-gradient"/>
  </defs>
  <g id="Layer_1-2" data-name="Layer 1">
    <rect class="cls-1" x="265.02" y="88.43" width="17.8" height="1154.73"/>
    <g>
      <path class="cls-5" d="m239.18,1243.16c0,18.66,15.13,33.79,33.8,33.79s33.79-15.13,33.79-33.79-15.13-33.79-33.79-33.79-33.8,15.13-33.8,33.79Z"/>
      <path class="cls-2" d="m272.98,1284.42c-22.75,0-41.26-18.51-41.26-41.26s18.51-41.26,41.26-41.26,41.26,18.51,41.26,41.26-18.51,41.26-41.26,41.26Zm0-67.59c-14.52,0-26.33,11.81-26.33,26.33s11.81,26.33,26.33,26.33,26.33-11.81,26.33-26.33-11.81-26.33-26.33-26.33Z"/>
    </g>
    <g>
      <path class="cls-3" d="m239.18,650.76c0,18.66,15.13,33.79,33.8,33.79s33.79-15.13,33.79-33.79-15.13-33.79-33.79-33.79-33.8,15.13-33.8,33.79Z"/>
      <path class="cls-2" d="m272.98,692.02c-22.75,0-41.26-18.51-41.26-41.26s18.51-41.26,41.26-41.26,41.26,18.51,41.26,41.26-18.51,41.26-41.26,41.26Zm0-67.59c-14.52,0-26.33,11.81-26.33,26.33s11.81,26.33,26.33,26.33,26.33-11.81,26.33-26.33-11.81-26.33-26.33-26.33Z"/>
    </g>
    <g>
      <circle class="cls-2" cx="91.64" cy="1242.24" r="83.48" transform="translate(-1145.6 1098.06) rotate(-79.13)"/>
      <path class="cls-4" d="m91.64,1333.88C41.11,1333.88,0,1292.77,0,1242.24s41.11-91.64,91.64-91.64,91.64,41.11,91.64,91.64-41.11,91.64-91.64,91.64Zm0-166.96c-41.53,0-75.31,33.79-75.31,75.31s33.79,75.31,75.31,75.31,75.32-33.79,75.32-75.31-33.79-75.31-75.32-75.31Z"/>
    </g>
    <g>
      <circle class="cls-2" cx="91.64" cy="652.8" r="83.48"/>
      <path class="cls-8" d="m91.64,744.44C41.11,744.44,0,703.33,0,652.8s41.11-91.64,91.64-91.64,91.64,41.11,91.64,91.64-41.11,91.64-91.64,91.64Zm0-166.96c-41.53,0-75.31,33.79-75.31,75.32s33.79,75.32,75.31,75.32,75.32-33.79,75.32-75.32-33.79-75.32-75.32-75.32Z"/>
    </g>
    <g>
      <circle class="cls-2" cx="91.64" cy="91.64" r="83.48" transform="translate(-37.96 91.64) rotate(-45)"/>
      <path class="cls-6" d="m91.64,183.28C41.11,183.28,0,142.17,0,91.64S41.11,0,91.64,0s91.64,41.11,91.64,91.64-41.11,91.64-91.64,91.64Zm0-166.96c-41.53,0-75.31,33.79-75.31,75.32s33.79,75.31,75.31,75.31,75.32-33.79,75.32-75.31S133.17,16.33,91.64,16.33Z"/>
    </g>
    <g>
      <path class="cls-7" d="m239.18,88.43c0,18.66,15.13,33.79,33.8,33.79s33.79-15.13,33.79-33.79-15.13-33.79-33.79-33.79-33.8,15.13-33.8,33.79Z"/>
      <path class="cls-2" d="m272.98,129.69c-22.75,0-41.26-18.51-41.26-41.26s18.51-41.26,41.26-41.26,41.26,18.51,41.26,41.26-18.51,41.26-41.26,41.26Zm0-67.59c-14.52,0-26.33,11.81-26.33,26.33s11.81,26.33,26.33,26.33,26.33-11.81,26.33-26.33-11.81-26.33-26.33-26.33Z"/>
    </g>
  </g>
</svg>